<svg xmlns="http://www.w3.org/2000/svg" xmlns:xlink="http://www.w3.org/1999/xlink" viewBox="0 0 430 430" width="430" height="430" preserveAspectRatio="xMidYMid meet" style="width: 100%; height: 100%; transform: translate3d(0px, 0px, 0px); content-visibility: visible;"><defs><clipPath id="__lottie_element_51"><rect width="430" height="430" x="0" y="0"/></clipPath><clipPath id="__lottie_element_53"><path d="M0,0 L430,0 L430,430 L0,430z"/></clipPath><clipPath id="__lottie_element_58"><path d="M0,0 L430,0 L430,430 L0,430z"/></clipPath><g id="__lottie_element_61"><g transform="matrix(1,0,0,1,188.31300354003906,115.7750015258789)" opacity="1" style="display: block;"><g opacity="1" transform="matrix(1,0,0,1,0,0)"><path fill="rgb(255,0,0)" fill-opacity="1" d=" M106.74600219726562,34.025001525878906 C106.74600219726562,34.025001525878906 -106.74600219726562,34.025001525878906 -106.74600219726562,34.025001525878906 C-106.74600219726562,34.025001525878906 -106.74600219726562,-33.775001525878906 -106.74600219726562,-33.775001525878906 C-106.74600219726562,-33.775001525878906 106.74600219726562,-33.775001525878906 106.74600219726562,-33.775001525878906 C106.74600219726562,-33.775001525878906 106.74600219726562,34.025001525878906 106.74600219726562,34.025001525878906z"/></g></g></g><filter id="__lottie_element_67" filterUnits="objectBoundingBox" x="0%" y="0%" width="100%" height="100%"><feComponentTransfer in="SourceGraphic"><feFuncA type="table" tableValues="1.0 0.0"/></feComponentTransfer></filter><mask id="__lottie_element_61_2" mask-type="alpha"><g filter="url(#__lottie_element_67)"><rect width="430" height="430" x="0" y="0" fill="#ffffff" opacity="0"/><use xmlns:ns1="http://www.w3.org/1999/xlink" ns1:href="#__lottie_element_61"/></g></mask></defs><g clip-path="url(#__lottie_element_51)"><g clip-path="url(#__lottie_element_53)" transform="matrix(1,0,0,1,0,0)" opacity="1" style="display: block;"><g mask="url(#__lottie_element_61_2)" style="display: block;"><g clip-path="url(#__lottie_element_58)" transform="matrix(1,0,0,1,0,0)" opacity="1"><g transform="matrix(1,0,0,1,-35,-35)" opacity="1" style="display: none;"><g opacity="1" transform="matrix(1,0,0,1,367.0260009765625,150.45799255371094)"><path stroke-linecap="round" stroke-linejoin="round" fill-opacity="0" class="secondary" stroke="rgb(8,168,138)" stroke-opacity="1" stroke-width="12.04" d=" M-72.33499908447266,-18.5 C-72.33499908447266,-18.5 -90.66500091552734,-0.17299999296665192 -90.66500091552734,-0.17299999296665192 C-90.66500091552734,-0.17299999296665192 -72.33799743652344,18.156999588012695 -72.33799743652344,18.156999588012695"/></g><g opacity="1" transform="matrix(1,0,0,1,383.989990234375,261.5329895019531)"><path stroke-linecap="round" stroke-linejoin="round" fill-opacity="0" class="secondary" stroke="rgb(8,168,138)" stroke-opacity="1" stroke-width="12.04" d="M0 0"/></g></g><g transform="matrix(1,0,0,1,-35.14678955078125,-35.00099182128906)" opacity="1" style="display: block;"><g opacity="1" transform="matrix(1,0,0,1,367.0260009765625,150.45799255371094)"><path stroke-linecap="round" stroke-linejoin="round" fill-opacity="0" class="secondary" stroke="rgb(8,168,138)" stroke-opacity="1" stroke-width="12.04" d=" M9.164999961853027,-18.327999114990234 C9.164999961853027,-18.327999114990234 -9.164999961853027,-0.0010000000474974513 -9.164999961853027,-0.0010000000474974513 C-9.164999961853027,-0.0010000000474974513 9.161999702453613,18.327999114990234 9.161999702453613,18.327999114990234"/></g></g><g transform="matrix(1,0,0,1,-35,-35)" opacity="1" style="display: block;"><g opacity="1" transform="matrix(1,0,0,1,383.989990234375,261.5329895019531)"><path stroke-linecap="round" stroke-linejoin="round" fill-opacity="0" class="secondary" stroke="rgb(8,168,138)" stroke-opacity="1" stroke-width="12.04" d=" M-14.128000259399414,111.07599639892578 C-14.128000259399414,111.07599639892578 11.300000190734863,111.07599639892578 11.300000190734863,111.07599639892578 C19.489999771118164,111.07599639892578 26.128999710083008,104.43699645996094 26.128999710083008,96.24700164794922 C26.128999710083008,96.24700164794922 26.128999710083008,-96.24199676513672 26.128999710083008,-96.24199676513672 C26.128999710083008,-104.43099975585938 19.490999221801758,-111.06999969482422 11.302000045776367,-111.07099914550781 C11.302000045776367,-111.07099914550781 -24.929000854492188,-111.07599639892578 -26.100000381469727,-111.07599639892578"/></g></g><g transform="matrix(1,0,0,1,188.31300354003906,280.0820007324219)" opacity="1" style="display: none;"><g opacity="1" transform="matrix(1,0,0,1,0,0)"><path stroke-linecap="round" stroke-linejoin="round" fill-opacity="0" class="primary" stroke="rgb(18,19,49)" stroke-opacity="1" stroke-width="12.04" d=" M106.74600219726562,67.99626159667969 C106.74600219726562,67.99626159667969 -106.74600219726562,67.99626159667969 -106.74600219726562,67.99626159667969 C-106.74600219726562,67.99626159667969 -106.74600219726562,46.81452178955078 -106.74600219726562,46.81452178955078 C-106.74600219726562,46.81452178955078 106.74600219726562,46.81452178955078 106.74600219726562,46.81452178955078 C106.74600219726562,46.81452178955078 106.74600219726562,67.99626159667969 106.74600219726562,67.99626159667969z"/></g></g><g transform="matrix(1,0,0,1,188.31300354003906,280.0820007324219)" opacity="1" style="display: block;"><g opacity="1" transform="matrix(1,0,0,1,0,0)"><path stroke-linecap="round" stroke-linejoin="round" fill-opacity="0" class="secondary" stroke="rgb(8,168,138)" stroke-opacity="1" stroke-width="12.04" d=" M106.74600219726562,68.18299865722656 C106.74600219726562,68.18299865722656 -106.74600219726562,68.18299865722656 -106.74600219726562,68.18299865722656 C-106.74600219726562,68.18299865722656 -106.74600219726562,47.06700134277344 -106.74600219726562,47.06700134277344 C-106.74600219726562,47.06700134277344 106.74600219726562,47.06700134277344 106.74600219726562,47.06700134277344 C106.74600219726562,47.06700134277344 106.74600219726562,68.18299865722656 106.74600219726562,68.18299865722656z"/></g></g><g transform="matrix(1,0,0,1,188.31300354003906,205.33599853515625)" opacity="1" style="display: block;"><g opacity="1" transform="matrix(1,0,0,1,0,0)"><path stroke-linecap="round" stroke-linejoin="round" fill-opacity="0" class="primary" stroke="rgb(18,19,49)" stroke-opacity="1" stroke-width="12.04" d=" M106.74600219726562,93.70899963378906 C106.74600219726562,93.70899963378906 -106.74600219726562,93.70899963378906 -106.74600219726562,93.70899963378906 C-106.74600219726562,93.70899963378906 -106.74600219726562,55.79100036621094 -106.74600219726562,55.79100036621094 C-106.74600219726562,55.79100036621094 106.74600219726562,55.79100036621094 106.74600219726562,55.79100036621094 C106.74600219726562,55.79100036621094 106.74600219726562,93.70899963378906 106.74600219726562,93.70899963378906z"/></g></g><g transform="matrix(1,0,0,1,188.31300354003906,115.6709976196289)" opacity="1" style="display: block;"><g opacity="1" transform="matrix(1,0,0,1,0,0)"><path stroke-linecap="round" stroke-linejoin="round" fill-opacity="0" class="primary" stroke="rgb(18,19,49)" stroke-opacity="1" stroke-width="12.04" d=" M106.947998046875,117.35299682617188 C106.947998046875,117.35299682617188 -106.54399871826172,117.35299682617188 -106.54399871826172,117.35299682617188 C-106.54399871826172,117.35299682617188 -106.54399871826172,62.39699935913086 -106.54399871826172,62.39699935913086 C-106.54399871826172,62.39699935913086 106.947998046875,62.39699935913086 106.947998046875,62.39699935913086 C106.947998046875,62.39699935913086 106.947998046875,117.35299682617188 106.947998046875,117.35299682617188z"/></g></g></g></g><g transform="matrix(0.8662405610084534,0.49962717294692993,-0.49962717294692993,0.8662405610084534,272.31298828125,241.29685974121094)" opacity="1" style="display: none;"><g opacity="1" transform="matrix(1,0,0,1,0,0)"><path stroke-linecap="round" stroke-linejoin="round" fill-opacity="0" class="secondary" stroke="rgb(8,168,138)" stroke-opacity="1" stroke-width="12.04" d=" M140.87600708007812,44.86399841308594 C140.87600708007812,44.86399841308594 -140.87600708007812,44.86399841308594 -140.87600708007812,44.86399841308594 C-140.87600708007812,44.86399841308594 -140.87600708007812,-44.61399841308594 -140.87600708007812,-44.61399841308594 C-140.87600708007812,-44.61399841308594 140.87600708007812,-44.61399841308594 140.87600708007812,-44.61399841308594 C140.87600708007812,-44.61399841308594 140.87600708007812,44.86399841308594 140.87600708007812,44.86399841308594z"/></g></g><g transform="matrix(1,0,0,1,188.31300354003906,115.7750015258789)" opacity="1" style="display: block;"><g opacity="1" transform="matrix(1,0,0,1,0,0)"><path stroke-linecap="round" stroke-linejoin="round" fill-opacity="0" class="primary" stroke="rgb(18,19,49)" stroke-opacity="1" stroke-width="12.04" d=" M106.74600219726562,34.025001525878906 C106.74600219726562,34.025001525878906 -106.74600219726562,34.025001525878906 -106.74600219726562,34.025001525878906 C-106.74600219726562,34.025001525878906 -106.74600219726562,-33.775001525878906 -106.74600219726562,-33.775001525878906 C-106.74600219726562,-33.775001525878906 106.74600219726562,-33.775001525878906 106.74600219726562,-33.775001525878906 C106.74600219726562,-33.775001525878906 106.74600219726562,34.025001525878906 106.74600219726562,34.025001525878906z"/></g></g></g></g></svg>